<svg width="512" height="512" viewBox="0 0 512 512" fill="none" xmlns="http://www.w3.org/2000/svg">
  <!-- Background circle -->
  <circle cx="256" cy="256" r="256" fill="#FF0000"/>
  
  <!-- Music note -->
  <path d="M160 320c0 35.3 28.7 64 64 64s64-28.7 64-64V160l96-32v160c0 35.3 28.7 64 64 64s64-28.7 64-64-28.7-64-64-64c-11.8 0-22.9 3.2-32.4 8.8L288 160v160c0 35.3-28.7 64-64 64s-64-28.7-64-64z" fill="white"/>
  
  <!-- Play button triangle -->
  <path d="M200 200l80 56-80 56V200z" fill="white" opacity="0.8"/>
</svg> 